<svg width="180" height="60" viewBox="0 0 2366 293" fill="none" xmlns="http://www.w3.org/2000/svg">
    <rect x="418" y="46" width="83" height="205" fill="black"/>
    <rect x="589" y="46" width="83" height="205" fill="black"/>
    <path d="M1189 165H1248V237H1189V165Z" fill="black"/>
    <rect x="1063" y="52" width="68" height="206" fill="black"/>
    <rect x="1131" y="258" width="61" height="117" transform="rotate(-90 1131 258)" fill="black"/>
    <rect x="787" y="137" width="65" height="114" fill="black"/>
    <rect x="1351" y="100" width="50" height="114" fill="black"/>
    <rect x="1433" y="207" width="49.5259" height="114" transform="rotate(89.82 1433 207)" fill="black"/>
    <rect x="1433" y="51" width="49.5259" height="114" transform="rotate(89.82 1433 51)" fill="black"/>
    <path d="M644.588 73.4206L588.678 46L514.253 197.751L543.792 250.819L644.588 73.4206Z" fill="black"/>
    <path d="M445 72.6415L501.285 46L573.596 198.77L543.322 251.423L445 72.6415Z" fill="black"/>
    <path d="M771.152 46H716L790.356 174H846L771.152 46Z" fill="black"/>
    <path d="M865.848 46H921L846.644 174H791L865.848 46Z" fill="black"/>
    <line x1="589.5" y1="46" x2="589.5" y2="173" stroke="white"/>
    <line x1="418.421" y1="45.7307" x2="503.421" y2="178.731" stroke="white"/>
    <rect x="1504" y="50" width="74" height="205" fill="black"/>
    <path d="M1957.68 47.6161L2054.11 47.616L1884.6 233.504L1833.43 188.823L1957.68 47.6161Z" fill="black"/>
    <path d="M1984.86 255.696L2060.4 255.696L1927.61 110.067L1887.52 145.071L1984.86 255.696Z" fill="black"/>
    <rect x="1658" y="50" width="74" height="205" fill="black"/>
    <rect x="1812" y="48" width="76" height="208" fill="black"/>
    <path d="M1522.15 100.568L1577.63 50L1697.2 200.468L1658.33 255.036L1522.15 100.568Z" fill="black"/>
    <line y1="-0.5" x2="50.5547" y2="-0.5" transform="matrix(0.65955 0.751661 -0.866774 0.498701 818.5 127)" stroke="white"/>
    <line x1="1131.5" y1="197" x2="1131.5" y2="258" stroke="white"/>
    <line y1="-0.5" x2="134.392" y2="-0.5" transform="matrix(-0.541306 -0.840825 0.77404 -0.633136 1577.63 163)" stroke="white"/>
    <path d="M1658 151.183L1658 150L1732.23 249.052L1730.61 250.235L1658 151.183Z" fill="#D9D9D9"/>
    <g clip-path="url(#clip0_0_1)">
    <path d="M79.21 238.981C84.4479 244.226 90.6707 248.385 97.5208 251.218C104.371 254.051 111.713 255.502 119.126 255.489C126.54 255.502 133.884 254.05 140.736 251.217C147.588 248.384 153.813 244.226 159.053 238.981L190.986 207.036L175.02 191.07L143.087 223.014C136.724 229.349 128.111 232.905 119.132 232.905C110.153 232.905 101.54 229.349 95.1764 223.014C88.8362 216.654 85.276 208.04 85.276 199.059C85.276 190.078 88.8362 181.464 95.1764 175.104L127.121 143.171L111.154 127.204L79.21 159.137C68.6388 169.734 62.7021 184.091 62.7021 199.059C62.7021 214.027 68.6388 228.384 79.21 238.981ZM254.863 143.171C265.429 132.571 271.362 118.215 271.362 103.249C271.362 88.283 265.429 73.9271 254.863 63.3275C244.266 52.7563 229.91 46.8196 214.941 46.8196C199.973 46.8196 185.617 52.7563 175.02 63.3275L143.087 95.2716L159.053 111.238L190.986 79.2939C197.349 72.9591 205.963 69.4027 214.941 69.4027C223.92 69.4027 232.534 72.9591 238.897 79.2939C245.237 85.6542 248.797 94.2685 248.797 103.249C248.797 112.23 245.237 120.844 238.897 127.204L206.953 159.137L222.919 175.104L254.863 143.171Z" fill="black"/>
    <path d="M127.109 207.047L111.131 191.081L206.963 95.2599L222.93 111.238L127.109 207.047Z" fill="black"/>
    </g>
    <path d="M1962.39 148.227L1963.5 149.5L1888 230L1888 228L1962.39 148.227Z" fill="#D9D9D9"/>
    <path d="M2190 173V128H2326V173H2190Z" fill="black"/>
    <path d="M2190 81V46H2289V81H2190Z" fill="black"/>
    <path d="M2190 256V221H2289V256H2190Z" fill="black"/>
    <path d="M2331.48 46L2366 76.8107V99H2289V46H2331.48Z" fill="black"/>
    <path d="M2147.52 256L2113 225.189V203H2190V256H2147.52Z" fill="black"/>
    <path d="M2147.75 46L2113 85V110H2190V46H2147.75Z" fill="black"/>
    <path d="M2147.75 173L2113 134V109H2190V173H2147.75Z" fill="black"/>
    <path d="M2331.25 256L2366 217V192H2289V256H2331.25Z" fill="black"/>
    <path d="M2331.25 128L2366 167V192H2289V128H2331.25Z" fill="black"/>
    <rect x="2287" y="221" width="2" height="35" fill="#D9D9D9"/>
    <rect x="2190" y="46" width="2" height="35" fill="#D9D9D9"/>
    <path d="M1888 126.817L1890 124.548V227.583L1888 229.764V126.817Z" fill="#D9D9D9"/>
    <defs>
    <clipPath id="clip0_0_1">
    <rect width="271" height="271" fill="white" transform="translate(0 16)"/>
    </clipPath>
    </defs>
    </svg>
    